<svg width="122" height="122" viewBox="0 0 122 122" fill="none" xmlns="http://www.w3.org/2000/svg">
<path d="M120 76.0007C120 43.4159 93.5848 17.0006 61 17.0006C28.4152 17.0006 2 43.4159 2 76.0007C2 108.585 29.6755 105.851 62.2603 105.851C94.8451 105.851 120 108.585 120 76.0007Z" fill="#2ECE53"/>
<g filter="url(#filter0_i_199_49)">
<path d="M120 76.0007C120 43.4159 93.5848 17.0006 61 17.0006C28.4152 17.0006 2 43.4159 2 76.0007C2 108.585 29.6755 105.851 62.2603 105.851C94.8451 105.851 120 108.585 120 76.0007Z" fill="#2FCE53"/>
</g>
<path d="M120 76.0007C120 43.4159 93.5848 17.0006 61 17.0006C28.4152 17.0006 2 43.4159 2 76.0007C2 108.585 29.6755 105.851 62.2603 105.851C94.8451 105.851 120 108.585 120 76.0007Z" stroke="#0E1320" stroke-width="4"/>
<path d="M41 61.4541C44.866 61.4541 48 58.3201 48 54.4541C48 50.5881 44.866 47.4541 41 47.4541C37.134 47.4541 34 50.5881 34 54.4541C34 58.3201 37.134 61.4541 41 61.4541Z" fill="black"/>
<path d="M85 61.4541C88.866 61.4541 92 58.3201 92 54.4541C92 50.5881 88.866 47.4541 85 47.4541C81.134 47.4541 78 50.5881 78 54.4541C78 58.3201 81.134 61.4541 85 61.4541Z" fill="black"/>
<path d="M16 56.4531C17.1046 56.4531 18 55.5577 18 54.4531C18 53.3486 17.1046 52.4531 16 52.4531C14.8954 52.4531 14 53.3486 14 54.4531C14 55.5577 14.8954 56.4531 16 56.4531Z" fill="white"/>
<path fill-rule="evenodd" clip-rule="evenodd" d="M41.7282 31.6925C42.213 31.4439 42.3095 30.9129 41.9307 30.4922L40.605 29.0199C40.232 28.6056 39.5242 28.4743 39.0432 28.7217C39.0432 28.7217 35.1926 30.6164 31.9235 32.9206C28.6545 35.2248 28.6684 35.2944 27.3954 36.4406C23.8557 39.6277 18.2092 47.5505 18.2092 47.5505C17.8922 47.9886 17.9319 48.6732 18.3106 49.0938L19.6364 50.5662C20.0094 50.9804 20.5525 50.9455 20.8593 50.4806C20.8593 50.4806 23.1991 46.8005 25.9922 43.5616C28.7853 40.3227 27.7583 41.5064 29.7633 39.3606C32.7176 36.1989 41.7282 31.6925 41.7282 31.6925Z" fill="white"/>
<path fill-rule="evenodd" clip-rule="evenodd" d="M61.5 94.7591C71.165 94.7591 79 86.9241 79 77.2591C79 67.5941 71.6887 72.9158 62.0237 72.9158C52.3588 72.9158 44 67.5941 44 77.2591C44 86.9241 51.835 94.7591 61.5 94.7591Z" fill="black"/>
<defs>
<filter id="filter0_i_199_49" x="2" y="13.001" width="122" height="92.9062" filterUnits="userSpaceOnUse" color-interpolation-filters="sRGB">
<feFlood flood-opacity="0" result="BackgroundImageFix"/>
<feBlend mode="normal" in="SourceGraphic" in2="BackgroundImageFix" result="shape"/>
<feColorMatrix in="SourceAlpha" type="matrix" values="0 0 0 0 0 0 0 0 0 0 0 0 0 0 0 0 0 0 127 0" result="hardAlpha"/>
<feOffset dx="7" dy="-10"/>
<feGaussianBlur stdDeviation="2"/>
<feComposite in2="hardAlpha" operator="arithmetic" k2="-1" k3="1"/>
<feColorMatrix type="matrix" values="0 0 0 0 0 0 0 0 0 0 0 0 0 0 0 0 0 0 0.1 0"/>
<feBlend mode="normal" in2="shape" result="effect1_innerShadow_199_49"/>
</filter>
</defs>
</svg>
