<svg xmlns="http://www.w3.org/2000/svg" viewBox="0 0 50 50">
  <g>
    <polygon fill="#BC473A" points="24.4,5 20.7,18.2 20.7,18.4 20.7,31.6 24.4,45 24.4,45 28.3,31.6 28.3,18.4 28.3,18.2 24.4,5"/>
    <polyline fill="#E84D3D" points="24.4,5 6,11.7 8.6,36.2 24.4,45"/>
    <polyline fill="#BC473A" points="24.4,45 40.4,36.2 43.3,11.6 24.4,5"/>
    <path fill="#FDC72E" d="M21.1,34.7c-1.8-0.6-3.4-1.6-4.7-2.9l0,0c-0.2-0.2-0.3-0.3-0.5-0.5c-1-1.2-1.8-2.6-2.2-4.1 c0.3,0.3,0.6,0.5,1,0.8l0,0c0,0,0,0,0,0c0,0,0,0,0,0c0.5,0.3,1,0.6,1.5,0.9c0.2,0.1,0.3,0.2,0.5,0.2c0.2,0.1,0.4,0.2,0.7,0.2 c0,0,0,0,0,0c0,0,0.1,0,0.1,0c0.1,0.9,0.8,1.6,1.7,1.8C19.5,32.6,20.1,33.8,21.1,34.7z"/>
    <path fill="#FDC72E" d="M21.8,18.8c0,0.4,0.1,0.8,0.3,1.1c-1.5,2.1-2.5,4.4-3,6.6c0,0.3-0.1,0.5-0.1,0.7c-0.5,0.1-0.9,0.5-1.2,0.9 c0,0,0,0,0,0c0,0,0,0-0.1,0c-0.2-0.1-0.3-0.1-0.5-0.2c-0.2-0.1-0.5-0.2-0.7-0.3c-0.8-0.4-1.5-0.9-2.1-1.6 c-0.1-0.1-0.3-0.3-0.4-0.4l-0.1-0.1c0-0.1-0.1-0.1-0.1-0.2c0,0,0,0-0.1-0.1c0,0,0,0,0-0.1c0,0,0,0,0,0c0,0,0-0.1-0.1-0.1 c0,0,0,0,0,0c0,0,0,0,0,0c0,0,0,0,0-0.1c-0.1-0.1-0.1-0.2-0.2-0.3c0,0,0,0,0,0c0,0,0,0,0,0c0-0.2,0-0.5,0-0.7 c0-2.3,0.7-4.4,1.8-6.1c0.1-0.2,0.3-0.4,0.4-0.6c0.1-0.2,0.3-0.4,0.4-0.6c1.4-1.6,3.1-2.8,5.2-3.4c0,0.2,0.1,0.4,0.1,0.7 c0.2,1.2,0.6,2.3,1.1,3.5C22,17.8,21.8,18.2,21.8,18.8z"/>
    <path fill="#FDC72E" d="M20.6,29.2c0,0.3-0.1,0.5-0.3,0.7c0,0-0.1,0.1-0.1,0.1c-0.2,0.2-0.4,0.3-0.7,0.3c-0.2,0-0.4-0.1-0.6-0.2 c-0.2-0.1-0.3-0.3-0.4-0.5c-0.1-0.1-0.1-0.3-0.1-0.5c0-0.3,0.1-0.6,0.3-0.8c0,0,0.1-0.1,0.1-0.1c0.2-0.1,0.4-0.2,0.6-0.2 c0.2,0,0.5,0.1,0.7,0.2c0.1,0.1,0.2,0.2,0.3,0.3C20.5,28.8,20.6,29,20.6,29.2z"/>
    <path fill="#FDC72E" d="M24.9,18.8c0,0.2,0,0.3-0.1,0.5c-0.2,0.4-0.5,0.6-1,0.6c-0.1,0-0.1,0-0.2,0c0,0,0,0,0,0 c-0.5-0.1-0.8-0.4-0.9-0.9c0-0.1,0-0.1,0-0.2c0-0.1,0-0.2,0.1-0.4c0.1-0.4,0.6-0.7,1-0.7h0c0,0,0,0,0,0c0.5,0,0.9,0.3,1,0.8 C24.9,18.5,24.9,18.6,24.9,18.8z"/>
    <path fill="#E09B00" d="M35.7,24c0,1.1-0.2,2.1-0.4,3.1c-1-0.3-1.9-0.6-2.9-1.1c0-0.1,0-0.3,0-0.4c0-0.3-0.1-0.5-0.2-0.8 c0,0,0.1-0.1,0.1-0.1c1.1-1.2,2.1-2.5,2.9-3.9C35.5,21.9,35.7,22.9,35.7,24z"/>
    <path fill="#E09B00" d="M34.6,19.2c-0.1,0.2-0.2,0.3-0.2,0.5c-0.8,1.5-1.7,2.9-3,4.1c0,0,0,0,0,0c-0.3-0.2-0.7-0.3-1.1-0.3 c-0.5,0-0.9,0.1-1.2,0.4c-0.6-0.5-1.2-1-1.8-1.6c-0.7-0.7-1.4-1.5-2-2.3c0.3-0.4,0.5-0.8,0.5-1.3c0-0.4-0.1-0.7-0.3-1 c1.5-1.4,3.1-2.5,4.7-3.3C32.2,15.5,33.7,17.2,34.6,19.2z"/>
    <path fill="#E09B00" d="M31.4,25.6c0,0.5-0.3,0.8-0.7,1c-0.1,0.1-0.3,0.1-0.4,0.1c-0.1,0-0.2,0-0.2,0c-0.5-0.1-0.8-0.5-0.9-1 c0,0,0,0,0,0c0,0,0,0,0,0c0,0,0,0,0,0c0-0.5,0.3-0.9,0.7-1c0.1,0,0.2-0.1,0.4-0.1c0.1,0,0.2,0,0.3,0 C31.1,24.7,31.4,25.1,31.4,25.6C31.4,25.5,31.4,25.6,31.4,25.6z"/>
    <path fill="#E09B00" d="M31.7,27.1c-0.4,0.3-0.8,0.5-1.4,0.5c-0.4,0-0.8-0.1-1.1-0.3c0,0-0.1,0.1-0.1,0.1c-1.5,0.9-3,1.6-4.6,2v5.8 c4.7,0,8.7-2.8,10.4-6.9C33.8,28,32.7,27.6,31.7,27.1z"/>
    <path fill="#FDC72E" d="M24.4,29.4c-1,0.2-1.9,0.4-2.9,0.4c-0.1,0-0.1,0-0.2,0c-0.2,0.5-0.5,0.9-1,1.1c0.3,1.1,0.8,2,1.6,2.8 c0.6,0.6,1.4,1.1,2.3,1.4c0.1,0,0.1,0,0.2,0V29.4z"/>
    <path fill="#E09B00" d="M28.3,25.6c0-0.2,0-0.4,0.1-0.6c-0.7-0.5-1.3-1.1-2-1.7c-0.7-0.7-1.4-1.5-2-2.3v7.1c1.3-0.4,2.7-1,4-1.8 c0,0,0,0,0,0C28.4,26.1,28.3,25.8,28.3,25.6z"/>
    <path fill="#FDC72E" d="M24.4,21c-0.1-0.1-0.1-0.1-0.2-0.2c-0.1,0-0.3,0.1-0.5,0.1c-0.3,0-0.5-0.1-0.8-0.1c-1.4,1.9-2.3,4-2.7,6.1 c0,0.2-0.1,0.4-0.1,0.6c0.6,0.2,1,0.7,1.2,1.3c0,0,0,0,0.1,0c1,0,2-0.2,2.9-0.5V21z"/>
    <path fill="#E09B00" d="M24.4,12.7v4.1c0.1,0,0.1,0,0.2,0.1c1.3-1.3,2.8-2.4,4.3-3.2C27.5,13.1,26,12.7,24.4,12.7z"/>
    <path fill="#FDC72E" d="M24.4,12.7c-0.7,0-1.4,0.1-2.1,0.2c0,0.2,0.1,0.5,0.1,0.7c0.2,1,0.5,2.1,1,3.1c0.1,0,0.3,0,0.4,0 c0.2,0,0.4,0,0.6,0.1V12.7z"/>
  </g>
</svg>
