<svg xmlns="http://www.w3.org/2000/svg" width="840" height="382" viewBox="0 0 840 382">
  <defs>
    <linearGradient id="ext-header" x1="0" y1="0" x2="1" y2="0">
      <stop offset="0%" stop-color="#4285f4" stop-opacity="0.2"/>
      <stop offset="100%" stop-color="#ff7139" stop-opacity="0.1"/>
    </linearGradient>
  </defs>
  <rect x="0" y="0" width="840" height="382" rx="12" fill="#0d1117" stroke="#30363d" stroke-width="1"/>

  <rect x="0.5" y="0.5" width="839" height="56" rx="12" fill="url(#ext-header)"/>
  <rect x="0.5" y="24" width="839" height="32" fill="url(#ext-header)"/>
  <line x1="0" y1="56" x2="840" y2="56" stroke="#30363d" stroke-width="0.5"/>
  <text x="24" y="36" fill="#e6edf3" font-size="16" font-weight="700" font-family="'Segoe UI','Helvetica Neue',Arial,sans-serif">🧩  Browser Extensions</text>

  
    <g transform="translate(0, 56)">
      <rect x="0" y="0" width="840" height="62" rx="0" fill="#161b22" opacity="0.5"/>
      <text x="24" y="24" fill="#58a6ff" font-size="13" font-weight="600" font-family="'Segoe UI','Helvetica Neue',Arial,sans-serif">Backlog Pull Request Plus</text>
      <g transform="translate(400, 10)">
        <rect x="0" y="0" width="272" height="24" rx="12" fill="#4285f4" opacity="0.1"/>
        <text x="136" y="16" fill="#4285f4" font-size="11" text-anchor="middle" font-family="'Segoe UI','Helvetica Neue',Arial,sans-serif">Chrome v? · ? users</text>
      </g>
      <g transform="translate(686, 10)">
        <rect x="0" y="0" width="130" height="24" rx="12" fill="#ff7139" opacity="0.12"/>
        <text x="65" y="16" fill="#ff7139" font-size="11" text-anchor="middle" font-family="'Segoe UI','Helvetica Neue',Arial,sans-serif">🦊 v? · ?</text>
      </g>
      <text x="24" y="46" fill="#3fb950" font-size="10" font-weight="600" font-family="'Segoe UI','Helvetica Neue',Arial,sans-serif">NEW</text>
    </g>
    <g transform="translate(0, 118)">
      
      <text x="24" y="24" fill="#58a6ff" font-size="13" font-weight="600" font-family="'Segoe UI','Helvetica Neue',Arial,sans-serif">File Icons for Backlog Git</text>
      <g transform="translate(400, 10)">
        <rect x="0" y="0" width="272" height="24" rx="12" fill="#4285f4" opacity="0.1"/>
        <text x="136" y="16" fill="#4285f4" font-size="11" text-anchor="middle" font-family="'Segoe UI','Helvetica Neue',Arial,sans-serif">Chrome v? · ? users</text>
      </g>
      <g transform="translate(686, 10)">
        <rect x="0" y="0" width="130" height="24" rx="12" fill="#ff7139" opacity="0.12"/>
        <text x="65" y="16" fill="#ff7139" font-size="11" text-anchor="middle" font-family="'Segoe UI','Helvetica Neue',Arial,sans-serif">🦊 v? · ?</text>
      </g>
      <text x="24" y="46" fill="#3fb950" font-size="10" font-weight="600" font-family="'Segoe UI','Helvetica Neue',Arial,sans-serif">NEW</text>
    </g>
    <g transform="translate(0, 180)">
      <rect x="0" y="0" width="840" height="62" rx="0" fill="#161b22" opacity="0.5"/>
      <text x="24" y="24" fill="#58a6ff" font-size="13" font-weight="600" font-family="'Segoe UI','Helvetica Neue',Arial,sans-serif">Backlog Notification</text>
      <g transform="translate(400, 10)">
        <rect x="0" y="0" width="272" height="24" rx="12" fill="#4285f4" opacity="0.1"/>
        <text x="136" y="16" fill="#4285f4" font-size="11" text-anchor="middle" font-family="'Segoe UI','Helvetica Neue',Arial,sans-serif">Chrome v? · ? users</text>
      </g>
      <g transform="translate(686, 10)">
        <rect x="0" y="0" width="130" height="24" rx="12" fill="#ff7139" opacity="0.12"/>
        <text x="65" y="16" fill="#ff7139" font-size="11" text-anchor="middle" font-family="'Segoe UI','Helvetica Neue',Arial,sans-serif">🦊 v? · ?</text>
      </g>
      
    </g>
    <g transform="translate(0, 242)">
      
      <text x="24" y="24" fill="#58a6ff" font-size="13" font-weight="600" font-family="'Segoe UI','Helvetica Neue',Arial,sans-serif">283 PiP</text>
      <g transform="translate(400, 10)">
        <rect x="0" y="0" width="272" height="24" rx="12" fill="#4285f4" opacity="0.1"/>
        <text x="136" y="16" fill="#4285f4" font-size="11" text-anchor="middle" font-family="'Segoe UI','Helvetica Neue',Arial,sans-serif">Chrome v? · ? users</text>
      </g>
      
      
    </g>
    <g transform="translate(0, 304)">
      <rect x="0" y="0" width="840" height="62" rx="0" fill="#161b22" opacity="0.5"/>
      <text x="24" y="24" fill="#58a6ff" font-size="13" font-weight="600" font-family="'Segoe UI','Helvetica Neue',Arial,sans-serif">X2B</text>
      <g transform="translate(400, 10)">
        <rect x="0" y="0" width="272" height="24" rx="12" fill="#4285f4" opacity="0.1"/>
        <text x="136" y="16" fill="#4285f4" font-size="11" text-anchor="middle" font-family="'Segoe UI','Helvetica Neue',Arial,sans-serif">Chrome v? · ? users</text>
      </g>
      <g transform="translate(686, 10)">
        <rect x="0" y="0" width="130" height="24" rx="12" fill="#ff7139" opacity="0.12"/>
        <text x="65" y="16" fill="#ff7139" font-size="11" text-anchor="middle" font-family="'Segoe UI','Helvetica Neue',Arial,sans-serif">🦊 v? · ?</text>
      </g>
      
    </g>
</svg>