<svg xmlns="http://www.w3.org/2000/svg" width="860" height="76"><defs><clipPath id="a"><path d="M0 0h860v76H0z"/></clipPath></defs><g data-name="custom – 1" clip-path="url(#a)"><path data-name="パス 1" d="M281.884 47.063a1.11 1.11 0 01-.328.795 1.029 1.029 0 01-.765.341 1.012 1.012 0 01-.783-.341 1.144 1.144 0 01-.309-.795V21.335a1.11 1.11 0 01.328-.795 1.029 1.029 0 01.765-.341 1.012 1.012 0 01.783.341 1.144 1.144 0 01.309.795zm25.7-8.551a10.81 10.81 0 01-1.22 5.165 9.337 9.337 0 01-3.295 3.594 8.635 8.635 0 01-4.7 1.305 8.661 8.661 0 01-4.669-1.304 9.288 9.288 0 01-3.313-3.594 10.81 10.81 0 01-1.22-5.165 10.78 10.78 0 011.22-5.184 9.468 9.468 0 013.313-3.594 8.569 8.569 0 014.676-1.325 8.543 8.543 0 014.7 1.324 9.519 9.519 0 013.295 3.594 10.78 10.78 0 011.216 5.185zm-2.184 0a8.962 8.962 0 00-.91-4.105A7.221 7.221 0 00302 31.57a6.447 6.447 0 00-3.622-1.04 6.385 6.385 0 00-3.588 1.04 7.359 7.359 0 00-2.512 2.837 8.816 8.816 0 00-.928 4.105 8.7 8.7 0 00.928 4.088 7.393 7.393 0 002.512 2.819 6.385 6.385 0 003.586 1.04A6.447 6.447 0 00302 45.418a7.253 7.253 0 002.492-2.818 8.845 8.845 0 00.908-4.087zm11.98 8.551a1.11 1.11 0 01-.328.795 1.029 1.029 0 01-.765.341 1.012 1.012 0 01-.783-.341 1.144 1.144 0 01-.309-.795V21.335a1.11 1.11 0 01.328-.795 1.029 1.029 0 01.765-.341 1.012 1.012 0 01.783.341 1.144 1.144 0 01.309.795zm11.286 0a1.11 1.11 0 01-.328.795 1.029 1.029 0 01-.765.341 1.012 1.012 0 01-.783-.341 1.144 1.144 0 01-.309-.795V21.335a1.11 1.11 0 01.328-.795 1.029 1.029 0 01.765-.341 1.012 1.012 0 01.783.341 1.144 1.144 0 01.309.795zm10.994 0a1.11 1.11 0 01-.328.795 1.029 1.029 0 01-.765.341 1.012 1.012 0 01-.783-.341 1.144 1.144 0 01-.309-.795v-17.4a1.144 1.144 0 01.309-.795 1.012 1.012 0 01.783-.341 1.012 1.012 0 01.783.341 1.144 1.144 0 01.309.795zm-1.092-21.074a1.619 1.619 0 01-1.147-.359 1.36 1.36 0 01-.382-1.04v-.378a1.3 1.3 0 01.419-1.04 1.7 1.7 0 011.147-.359 1.507 1.507 0 011.074.359 1.36 1.36 0 01.382 1.04v.378a1.36 1.36 0 01-.382 1.04 1.562 1.562 0 01-1.111.359zm18.532 2.724a7.755 7.755 0 014.387 1.267 8.96 8.96 0 013.04 3.481 11.05 11.05 0 011.126 5.089 11.168 11.168 0 01-1.129 5.108 9.02 9.02 0 01-3.058 3.519 7.635 7.635 0 01-4.332 1.286 7.343 7.343 0 01-2.421-.4 8.1 8.1 0 01-2.093-1.078 8.24 8.24 0 01-1.675-1.608 8.126 8.126 0 01-1.165-2.021l.655-.492v11.767a1.144 1.144 0 01-.309.795 1.012 1.012 0 01-.783.341 1.04 1.04 0 01-.783-.322 1.126 1.126 0 01-.309-.813v-24.67a1.237 1.237 0 01.291-.832 1 1 0 01.8-.341 1.012 1.012 0 01.783.341 1.193 1.193 0 01.309.832v4.086l-.51-.3A6.676 6.676 0 01351 31.645a7.467 7.467 0 011.656-1.589 7.247 7.247 0 012.075-1 8.148 8.148 0 012.369-.343zm-.182 2.119a6.056 6.056 0 00-3.459 1 6.911 6.911 0 00-2.35 2.727 8.86 8.86 0 00-.856 3.992 9.135 9.135 0 00.856 4.011 6.829 6.829 0 002.348 2.781 6.056 6.056 0 003.459 1 5.908 5.908 0 003.4-1 7.019 7.019 0 002.348-2.781 8.974 8.974 0 00.874-4.011 8.736 8.736 0 00-.874-3.973 7.077 7.077 0 00-2.344-2.743 5.908 5.908 0 00-3.404-1.003zm33.347 7.681a10.81 10.81 0 01-1.22 5.165 9.337 9.337 0 01-3.295 3.594 9.068 9.068 0 01-9.374 0 9.288 9.288 0 01-3.313-3.594 10.81 10.81 0 01-1.22-5.165 10.78 10.78 0 011.22-5.184 9.468 9.468 0 013.313-3.594 8.569 8.569 0 014.678-1.324 8.543 8.543 0 014.7 1.324 9.519 9.519 0 013.295 3.594 10.78 10.78 0 011.214 5.184zm-2.184 0a8.962 8.962 0 00-.91-4.105 7.221 7.221 0 00-2.494-2.838 6.447 6.447 0 00-3.622-1.04 6.385 6.385 0 00-3.586 1.04 7.359 7.359 0 00-2.514 2.837 8.816 8.816 0 00-.928 4.105 8.7 8.7 0 00.928 4.088 7.393 7.393 0 002.512 2.819 6.385 6.385 0 003.586 1.04 6.447 6.447 0 003.622-1.04 7.253 7.253 0 002.494-2.819 8.845 8.845 0 00.91-4.087zm18.421-9.8a7.755 7.755 0 014.387 1.267 8.96 8.96 0 013.04 3.481 11.051 11.051 0 011.129 5.089 11.168 11.168 0 01-1.129 5.108 9.02 9.02 0 01-3.058 3.519 7.635 7.635 0 01-4.332 1.286 7.343 7.343 0 01-2.421-.4 8.1 8.1 0 01-2.093-1.078 8.241 8.241 0 01-1.675-1.608 8.127 8.127 0 01-1.165-2.024l.655-.492v11.77a1.144 1.144 0 01-.309.795 1.012 1.012 0 01-.783.341 1.04 1.04 0 01-.783-.322 1.126 1.126 0 01-.309-.813v-24.67a1.237 1.237 0 01.291-.832 1 1 0 01.8-.341 1.012 1.012 0 01.783.341 1.193 1.193 0 01.309.832v4.086l-.51-.3a6.675 6.675 0 011.074-2.1 7.467 7.467 0 011.656-1.589 7.247 7.247 0 012.075-1 8.148 8.148 0 012.366-.346zm-.182 2.119a6.056 6.056 0 00-3.458 1 6.911 6.911 0 00-2.348 2.724 8.86 8.86 0 00-.856 3.992 9.135 9.135 0 00.856 4.011 6.829 6.829 0 002.348 2.781 6.056 6.056 0 003.458 1 5.908 5.908 0 003.4-1 7.019 7.019 0 002.348-2.781 8.974 8.974 0 00.874-4.011 8.736 8.736 0 00-.874-3.973 7.077 7.077 0 00-2.348-2.743 5.908 5.908 0 00-3.402-1zM422.773 48.2a1.133 1.133 0 01-.947-.416 1.661 1.661 0 01-.328-1.059v-.795a1.567 1.567 0 01.328-1.059 1.184 1.184 0 01.947-.378h.255a1.184 1.184 0 01.947.378 1.567 1.567 0 01.328 1.059v.795a1.661 1.661 0 01-.328 1.059 1.133 1.133 0 01-.947.416zm26.394-9.686a10.81 10.81 0 01-1.22 5.165 9.337 9.337 0 01-3.295 3.594 9.068 9.068 0 01-9.374 0 9.288 9.288 0 01-3.313-3.594 10.81 10.81 0 01-1.22-5.165 10.78 10.78 0 011.22-5.184 9.468 9.468 0 013.313-3.594 8.569 8.569 0 014.678-1.324 8.543 8.543 0 014.7 1.324 9.519 9.519 0 013.295 3.594 10.78 10.78 0 011.216 5.183zm-2.184 0a8.962 8.962 0 00-.91-4.105 7.221 7.221 0 00-2.494-2.838 6.447 6.447 0 00-3.622-1.04 6.385 6.385 0 00-3.586 1.04 7.359 7.359 0 00-2.512 2.838 8.816 8.816 0 00-.928 4.105 8.7 8.7 0 00.928 4.086 7.394 7.394 0 002.512 2.819 6.385 6.385 0 003.586 1.04 6.447 6.447 0 003.622-1.04 7.253 7.253 0 002.494-2.819 8.845 8.845 0 00.91-4.087zm18.348-10.1a6.6 6.6 0 013.841 1 5.6 5.6 0 012.075 2.724 10.882 10.882 0 01.637 3.8v11.125a1.11 1.11 0 01-.328.795 1.029 1.029 0 01-.765.341 1 1 0 01-.8-.341 1.185 1.185 0 01-.291-.795v-11.01a7.736 7.736 0 00-.473-2.762 4.23 4.23 0 00-1.547-2.005 4.8 4.8 0 00-2.821-.757 6.155 6.155 0 00-2.967.757 6.494 6.494 0 00-2.275 2.005 4.71 4.71 0 00-.874 2.762v11.01a1.11 1.11 0 01-.328.795 1.029 1.029 0 01-.764.341 1 1 0 01-.8-.341 1.185 1.185 0 01-.291-.795v-16.95a1.144 1.144 0 01.309-.795 1.012 1.012 0 01.783-.341 1.012 1.012 0 01.783.341 1.144 1.144 0 01.309.795v3.178l-.844 1.362a5.042 5.042 0 01.746-2.327 8.062 8.062 0 011.729-2.005 8.431 8.431 0 012.348-1.4 7.032 7.032 0 012.608-.511zm17.584 18.653a1.11 1.11 0 01-.328.795 1.029 1.029 0 01-.765.341 1.012 1.012 0 01-.783-.341 1.144 1.144 0 01-.309-.795V21.335a1.11 1.11 0 01.328-.795 1.029 1.029 0 01.765-.341 1.012 1.012 0 01.783.341 1.144 1.144 0 01.309.795z" fill="#221e24"/><path data-name="パス 2" d="M503.724 47.515h1.122l.1-.594a1.839 1.839 0 001.6.759c1.546.003 2.226-1.036 2.226-3.428v-2.128c0-2.161-.66-3.134-2.145-3.134a1.72 1.72 0 00-1.452.61v-3.86h-1.451zm3.6-3.1c0 1.369-.33 2.012-1.023 2.012-.759 0-1.122-.775-1.122-2.392v-1.42c0-1.633.363-2.392 1.122-2.392.691.004 1.019.582 1.019 1.819zm4.52 3.167l-.2 1.039c-.3 1.287-.478 1.485-1.435 1.468v1.226c1.913-.016 2.441-.478 2.92-2.557l2.125-9.619h-1.468l-1.221 6.548-1.319-6.548h-1.454zm6.928-3.425a5.065 5.065 0 00.226 1.858 2.683 2.683 0 002.722 1.691c1.938 0 2.99-1.072 2.99-3.072a2.431 2.431 0 00-2-2.763 5.212 5.212 0 01-1.629-.6 1.517 1.517 0 01-.7-1.464c0-1.031.474-1.608 1.32-1.608.948 0 1.361.639 1.381 2.062h1.32a4.63 4.63 0 00-.268-1.856 2.521 2.521 0 00-2.474-1.423c-1.711 0-2.639 1.01-2.639 2.825 0 1.732.577 2.412 2.536 3.031a3.492 3.492 0 011.3.515 1.551 1.551 0 01.495 1.3c0 1.175-.577 1.835-1.608 1.835a1.431 1.431 0 01-1.443-.866 3.805 3.805 0 01-.186-1.464zm7.835-9.3h1.443v-2.1h-1.443zm0 12.66h1.443v-10.35h-1.443zm3.918 0h1.443v-6.102c0-2.289.412-3.175 1.443-3.175.907 0 1.237.7 1.237 2.7v6.575h1.444v-6.2c0-2.165.412-3.072 1.423-3.072.928 0 1.258.7 1.258 2.7v6.572h1.443v-6.719a7.267 7.267 0 00-.224-2.247 2.191 2.191 0 00-2.186-1.567 2.114 2.114 0 00-2.024 1.155 2.089 2.089 0 00-2.041-1.155 2.121 2.121 0 00-2.021 1.052l-.1-.866h-1.096zm11.897-3.752c0 2.784.866 3.938 2.969 3.938 2.083 0 2.948-1.155 2.948-3.938v-2.866a5.136 5.136 0 00-.495-2.68 2.662 2.662 0 00-2.452-1.237c-2.1 0-2.97 1.155-2.97 3.917zm4.474.144c0 1.876-.412 2.577-1.526 2.577-1.093 0-1.505-.7-1.505-2.577v-3.133c0-1.876.412-2.577 1.505-2.577 1.113 0 1.526.7 1.526 2.577zm7.815.247c0 1.65-.433 2.33-1.443 2.33-.99 0-1.381-.763-1.381-2.66v-2.968c0-1.918.392-2.68 1.381-2.68.948 0 1.361.68 1.381 2.227h1.32a4.63 4.63 0 00-.289-1.979 2.462 2.462 0 00-2.433-1.464 2.56 2.56 0 00-2.227 1.072 5.478 5.478 0 00-.577 2.928v2.762c0 2.784.845 3.979 2.784 3.979a2.5 2.5 0 002.68-1.9 6.506 6.506 0 00.144-1.65zm3.34 3.359h1.441v-6.1c0-2.289.433-3.175 1.526-3.175 1.01 0 1.361.7 1.361 2.7v6.575h1.443v-6.739a6.965 6.965 0 00-.247-2.227 2.231 2.231 0 00-2.247-1.567 2.423 2.423 0 00-1.835.722v-4.908h-1.442zm9.423-4.928h4.392v-1.502c0-2.907-.845-4.1-2.928-4.1-2.062 0-2.907 1.2-2.907 4.1v2.536c0 2.866.866 4.083 2.907 4.083a2.683 2.683 0 002.494-1.237 4.959 4.959 0 00.392-2.206h-1.361c0 1.567-.433 2.227-1.505 2.227s-1.485-.722-1.485-2.577zm0-1.155v-.717c0-1.835.392-2.516 1.485-2.516s1.505.68 1.505 2.516v.722zm7.835 1.155h4.392v-1.502c0-2.907-.845-4.1-2.928-4.1-2.062 0-2.907 1.2-2.907 4.1v2.536c0 2.866.866 4.083 2.907 4.083a2.683 2.683 0 002.495-1.237 4.959 4.959 0 00.392-2.206h-1.362c0 1.567-.433 2.227-1.505 2.227s-1.485-.722-1.485-2.577zm0-1.155v-.717c0-1.835.392-2.516 1.485-2.516s1.505.68 1.505 2.516v.722z" fill="#2e3046"/></g></svg>