<svg xmlns="http://www.w3.org/2000/svg" width="158.58" height="18.8"><path data-name="パス 1" d="M1.2 14.2a.576.576 0 01-.18.42.576.576 0 01-.42.18.566.566 0 01-.43-.18.592.592 0 01-.17-.42V.6A.576.576 0 01.18.18.576.576 0 01.6 0a.566.566 0 01.43.18.592.592 0 01.17.42zm14.12-4.52a5.54 5.54 0 01-.67 2.73 5.013 5.013 0 01-1.81 1.9 4.884 4.884 0 01-2.58.69 4.9 4.9 0 01-2.57-.69 4.988 4.988 0 01-1.82-1.9 5.54 5.54 0 01-.67-2.73 5.524 5.524 0 01.67-2.74 5.085 5.085 0 011.82-1.9 4.845 4.845 0 012.57-.7 4.831 4.831 0 012.58.7 5.11 5.11 0 011.81 1.9 5.524 5.524 0 01.67 2.74zm-1.2 0a4.589 4.589 0 00-.5-2.17 3.868 3.868 0 00-1.37-1.5 3.644 3.644 0 00-1.99-.55 3.609 3.609 0 00-1.97.55 3.944 3.944 0 00-1.38 1.5 4.516 4.516 0 00-.51 2.17 4.457 4.457 0 00.51 2.16 3.963 3.963 0 001.38 1.49 3.609 3.609 0 001.97.55 3.644 3.644 0 001.99-.55 3.886 3.886 0 001.37-1.49 4.53 4.53 0 00.5-2.16zm6.58 4.52a.576.576 0 01-.18.42.576.576 0 01-.42.18.566.566 0 01-.43-.18.592.592 0 01-.17-.42V.6a.576.576 0 01.18-.42.576.576 0 01.42-.18.566.566 0 01.43.18.592.592 0 01.17.42zm6.2 0a.576.576 0 01-.18.42.576.576 0 01-.42.18.566.566 0 01-.43-.18.592.592 0 01-.17-.42V.6a.576.576 0 01.18-.42.576.576 0 01.42-.18.566.566 0 01.43.18.592.592 0 01.17.42zm6.04 0a.576.576 0 01-.18.42.576.576 0 01-.42.18.566.566 0 01-.43-.18.592.592 0 01-.17-.42V5a.592.592 0 01.17-.42.566.566 0 01.43-.18.566.566 0 01.43.18.592.592 0 01.17.42zm-.6-11.14a.913.913 0 01-.63-.19.7.7 0 01-.21-.55v-.2a.673.673 0 01.23-.55.96.96 0 01.63-.19.848.848 0 01.59.19.7.7 0 01.21.55v.2a.7.7 0 01-.21.55.88.88 0 01-.61.19zM42.52 4.5a4.383 4.383 0 012.41.67 4.8 4.8 0 011.67 1.84 5.659 5.659 0 01.62 2.69 5.718 5.718 0 01-.62 2.7 4.829 4.829 0 01-1.68 1.86 4.314 4.314 0 01-2.38.68 4.178 4.178 0 01-1.33-.21 4.517 4.517 0 01-1.15-.57 4.456 4.456 0 01-.92-.85 4.258 4.258 0 01-.64-1.07l.36-.26v6.22a.592.592 0 01-.17.42.566.566 0 01-.43.18.581.581 0 01-.6-.6V5.16a.639.639 0 01.16-.44.558.558 0 01.44-.18.566.566 0 01.43.18.617.617 0 01.17.44v2.16l-.28-.16a3.482 3.482 0 01.59-1.11 4.038 4.038 0 01.91-.84 4.05 4.05 0 011.14-.53 4.64 4.64 0 011.3-.18zm-.1 1.12a3.422 3.422 0 00-1.9.53 3.7 3.7 0 00-1.29 1.44 4.535 4.535 0 00-.47 2.11 4.675 4.675 0 00.47 2.12 3.65 3.65 0 001.29 1.47 3.422 3.422 0 001.9.53 3.338 3.338 0 001.87-.53 3.752 3.752 0 001.29-1.47 4.594 4.594 0 00.48-2.12 4.473 4.473 0 00-.48-2.1 3.786 3.786 0 00-1.29-1.45 3.338 3.338 0 00-1.87-.53zm18.32 4.06a5.54 5.54 0 01-.67 2.73 5.013 5.013 0 01-1.81 1.9 4.884 4.884 0 01-2.58.69 4.9 4.9 0 01-2.57-.69 4.988 4.988 0 01-1.82-1.9 5.54 5.54 0 01-.67-2.73 5.524 5.524 0 01.67-2.74 5.085 5.085 0 011.82-1.9 4.845 4.845 0 012.57-.7 4.831 4.831 0 012.58.7 5.11 5.11 0 011.81 1.9 5.524 5.524 0 01.67 2.74zm-1.2 0a4.589 4.589 0 00-.5-2.17 3.868 3.868 0 00-1.37-1.5 3.644 3.644 0 00-1.99-.55 3.609 3.609 0 00-1.97.55 3.944 3.944 0 00-1.38 1.5 4.516 4.516 0 00-.51 2.17 4.457 4.457 0 00.51 2.16 3.963 3.963 0 001.38 1.49 3.609 3.609 0 001.97.55 3.644 3.644 0 001.99-.55 3.886 3.886 0 001.37-1.49 4.53 4.53 0 00.5-2.16zM69.66 4.5a4.383 4.383 0 012.41.67 4.8 4.8 0 011.67 1.84 5.659 5.659 0 01.62 2.69 5.718 5.718 0 01-.62 2.7 4.829 4.829 0 01-1.68 1.86 4.314 4.314 0 01-2.38.68 4.178 4.178 0 01-1.33-.21 4.517 4.517 0 01-1.15-.57 4.456 4.456 0 01-.92-.85 4.259 4.259 0 01-.64-1.07l.36-.26v6.22a.592.592 0 01-.17.42.566.566 0 01-.43.18.581.581 0 01-.6-.6V5.16a.639.639 0 01.16-.44.558.558 0 01.44-.18.566.566 0 01.43.18.617.617 0 01.17.44v2.16l-.28-.16a3.482 3.482 0 01.59-1.11 4.038 4.038 0 01.91-.84 4.05 4.05 0 011.14-.53 4.64 4.64 0 011.3-.18zm-.1 1.12a3.422 3.422 0 00-1.9.53 3.7 3.7 0 00-1.29 1.44 4.535 4.535 0 00-.47 2.11 4.675 4.675 0 00.47 2.12 3.65 3.65 0 001.29 1.47 3.422 3.422 0 001.9.53 3.338 3.338 0 001.87-.53 3.752 3.752 0 001.29-1.47 4.594 4.594 0 00.48-2.12 4.473 4.473 0 00-.48-2.1 3.786 3.786 0 00-1.29-1.45 3.338 3.338 0 00-1.87-.53zm9.04 9.18a.633.633 0 01-.52-.22.855.855 0 01-.18-.56v-.42a.808.808 0 01.18-.56.664.664 0 01.52-.2h.14a.664.664 0 01.52.2.808.808 0 01.18.56v.42a.855.855 0 01-.18.56.633.633 0 01-.52.22zm14.5-5.12a5.54 5.54 0 01-.67 2.73 5.013 5.013 0 01-1.81 1.9 4.884 4.884 0 01-2.58.69 4.9 4.9 0 01-2.57-.69 4.988 4.988 0 01-1.82-1.9 5.54 5.54 0 01-.67-2.73 5.525 5.525 0 01.67-2.74 5.084 5.084 0 011.82-1.9 4.845 4.845 0 012.57-.7 4.831 4.831 0 012.58.7 5.11 5.11 0 011.81 1.9 5.524 5.524 0 01.67 2.74zm-1.2 0a4.589 4.589 0 00-.5-2.17 3.868 3.868 0 00-1.37-1.5 3.644 3.644 0 00-1.99-.55 3.609 3.609 0 00-1.97.55 3.944 3.944 0 00-1.38 1.5 4.516 4.516 0 00-.51 2.17 4.457 4.457 0 00.51 2.16 3.963 3.963 0 001.38 1.49 3.609 3.609 0 001.97.55 3.644 3.644 0 001.99-.55 3.886 3.886 0 001.37-1.49 4.53 4.53 0 00.5-2.16zm10.08-5.34a3.732 3.732 0 012.11.53 2.976 2.976 0 011.14 1.44 5.557 5.557 0 01.35 2.01v5.88a.576.576 0 01-.18.42.576.576 0 01-.42.18.558.558 0 01-.44-.18.612.612 0 01-.16-.42V8.38a3.951 3.951 0 00-.26-1.46 2.25 2.25 0 00-.85-1.06 2.714 2.714 0 00-1.55-.4 3.487 3.487 0 00-1.63.4 3.528 3.528 0 00-1.25 1.06 2.426 2.426 0 00-.48 1.46v5.82a.576.576 0 01-.18.42.576.576 0 01-.42.18.558.558 0 01-.44-.18.612.612 0 01-.16-.42V5.24a.592.592 0 01.17-.42.566.566 0 01.43-.18.566.566 0 01.43.18.592.592 0 01.17.42v1.68l-.46.72a2.6 2.6 0 01.41-1.23 4.312 4.312 0 01.95-1.06 4.673 4.673 0 011.29-.74 4 4 0 011.43-.27zm9.66 9.86a.576.576 0 01-.18.42.576.576 0 01-.42.18.566.566 0 01-.43-.18.592.592 0 01-.17-.42V.6a.576.576 0 01.18-.42.576.576 0 01.42-.18.566.566 0 01.43.18.592.592 0 01.17.42z" fill="#221e24"/><path data-name="パス 2" d="M121.732 14.8h.544l.048-.288a.892.892 0 00.776.368c.752 0 1.08-.5 1.08-1.664v-1.032c0-1.048-.32-1.52-1.04-1.52a.834.834 0 00-.7.3V9.088h-.7zm1.744-1.5c0 .664-.16.976-.5.976-.368 0-.544-.376-.544-1.16v-.688c0-.792.176-1.16.544-1.16.336 0 .5.28.5.88zm2.192 1.532l-.1.5c-.144.624-.232.72-.7.712v.596c.932-.008 1.192-.232 1.424-1.24l1.032-4.664h-.712l-.592 3.176-.64-3.176h-.7zm3.362-1.662a2.457 2.457 0 00.11.9 1.3 1.3 0 001.32.82 1.32 1.32 0 001.45-1.49 1.179 1.179 0 00-.97-1.34 2.528 2.528 0 01-.79-.29.736.736 0 01-.34-.71c0-.5.23-.78.64-.78.46 0 .66.31.67 1h.64a2.246 2.246 0 00-.13-.9 1.223 1.223 0 00-1.2-.69 1.2 1.2 0 00-1.28 1.37c0 .84.28 1.17 1.23 1.47a1.694 1.694 0 01.63.25.752.752 0 01.24.63c0 .57-.28.89-.78.89a.694.694 0 01-.7-.42 1.846 1.846 0 01-.09-.71zm3.8-4.51h.7V7.64h-.7zm0 6.14h.7V9.78h-.7zm1.9 0h.7v-2.96c0-1.11.2-1.54.7-1.54.44 0 .6.34.6 1.31v3.19h.7v-3.01c0-1.05.2-1.49.69-1.49.45 0 .61.34.61 1.31v3.19h.7v-3.26a3.524 3.524 0 00-.11-1.09 1.063 1.063 0 00-1.06-.76 1.025 1.025 0 00-.98.56 1.013 1.013 0 00-.99-.56 1.029 1.029 0 00-.98.51l-.05-.42h-.53zm5.77-1.82c0 1.35.42 1.91 1.44 1.91s1.43-.56 1.43-1.91v-1.39a2.491 2.491 0 00-.24-1.3 1.291 1.291 0 00-1.19-.6c-1.02 0-1.44.56-1.44 1.9zm2.17.07c0 .91-.2 1.25-.74 1.25s-.73-.34-.73-1.25v-1.52c0-.91.2-1.25.73-1.25s.74.34.74 1.25zm3.79.12c0 .8-.21 1.13-.7 1.13s-.67-.37-.67-1.29v-1.44c0-.93.19-1.3.67-1.3.46 0 .66.33.67 1.08h.64a2.245 2.245 0 00-.14-.96 1.194 1.194 0 00-1.18-.71 1.241 1.241 0 00-1.08.52 2.657 2.657 0 00-.28 1.42v1.34c0 1.35.41 1.93 1.35 1.93a1.215 1.215 0 001.3-.92 3.155 3.155 0 00.07-.8zm1.62 1.63h.7v-2.96c0-1.11.21-1.54.74-1.54.49 0 .66.34.66 1.31v3.19h.7v-3.27a3.378 3.378 0 00-.12-1.08 1.082 1.082 0 00-1.09-.76 1.175 1.175 0 00-.89.35V7.66h-.7zm4.57-2.39h2.13v-.73c0-1.41-.41-1.99-1.42-1.99s-1.41.58-1.41 1.99v1.23c0 1.39.42 1.98 1.41 1.98a1.3 1.3 0 001.21-.6 2.4 2.4 0 00.19-1.07h-.66c0 .76-.21 1.08-.73 1.08s-.72-.35-.72-1.25zm0-.56v-.35c0-.89.19-1.22.72-1.22s.73.33.73 1.22v.35zm3.8.56h2.13v-.73c0-1.41-.41-1.99-1.42-1.99s-1.41.58-1.41 1.99v1.23c0 1.39.42 1.98 1.41 1.98a1.3 1.3 0 001.21-.6 2.4 2.4 0 00.19-1.07h-.66c0 .76-.21 1.08-.73 1.08s-.72-.35-.72-1.25zm0-.56v-.35c0-.89.19-1.22.72-1.22s.73.33.73 1.22v.35z" fill="#2e3046"/></svg>